<svg xmlns="http://www.w3.org/2000/svg" viewBox="0 0 240 64" width="240" height="64">
  <title>VaultMTG wordmark, light variant (path-outlined)</title>
  <path fill="#4A90D9" fill-rule="evenodd" d="M 8 10 L 22 10 L 32 38 L 42 10 L 56 10 L 32 56 Z M 19 27 L 45 27 L 45 31 L 19 31 Z"/>
  <path fill="#F1F5F9" d="M79.488 43.0 74.504 23.4H78.312L82.456 40.62H82.848L86.992 23.4H90.8L85.816 43.0Z M97.07600000000001 43.392Q95.592 43.392 94.416 42.874Q93.24000000000001 42.356 92.554 41.362Q91.868 40.368 91.868 38.94Q91.868 37.512 92.554 36.546Q93.24000000000001 35.58 94.458 35.09Q95.676 34.6 97.244 34.6H101.052V33.816Q101.052 32.836 100.436 32.206Q99.82000000000001 31.576 98.476 31.576Q97.16 31.576 96.51599999999999 32.178Q95.872 32.78 95.676 33.732L92.428 32.64Q92.764 31.576 93.506 30.694Q94.248 29.811999999999998 95.494 29.266Q96.74000000000001 28.72 98.532 28.72Q101.276 28.72 102.872 30.092Q104.468 31.464 104.468 34.068V39.248Q104.468 40.088 105.25200000000001 40.088H106.372V43.0H104.02000000000001Q102.98400000000001 43.0 102.31200000000001 42.495999999999995Q101.64 41.992 101.64 41.152V41.124H101.108Q100.99600000000001 41.46 100.60400000000001 42.006Q100.212 42.552 99.372 42.972Q98.532 43.392 97.07600000000001 43.392ZM97.69200000000001 40.536Q99.176 40.536 100.114 39.71Q101.052 38.884 101.052 37.512V37.232H97.49600000000001Q96.516 37.232 95.956 37.652Q95.396 38.072 95.396 38.828Q95.396 39.584 95.98400000000001 40.06Q96.572 40.536 97.69200000000001 40.536Z M113.74 43.224Q112.116 43.224 110.898 42.482Q109.68 41.74 109.00800000000001 40.424Q108.336 39.108 108.336 37.4V29.112000000000002H111.864V37.12Q111.864 38.688 112.634 39.472Q113.404 40.256 114.832 40.256Q116.456 40.256 117.352 39.178Q118.248 38.1 118.248 36.168V29.112000000000002H121.776V43.0H118.304V41.18H117.8Q117.464 41.88 116.53999999999999 42.552Q115.616 43.224 113.74 43.224Z M125.196 43.0V23.4H128.72400000000002V43.0Z M137.464 43.0Q136.09199999999998 43.0 135.238 42.146Q134.384 41.292 134.384 39.864V32.024H130.912V29.112000000000002H134.384V24.8H137.912V29.112000000000002H141.72V32.024H137.912V39.248Q137.912 40.088 138.696 40.088H141.384V43.0Z M144.3 43.0V23.4H151.16L154.548 40.48H155.052L158.44 23.4H165.3V43.0H161.716V26.116H161.212L157.852 43.0H151.748L148.388 26.116H147.884V43.0Z M173.03199999999998 43.0V26.759999999999998H167.32V23.4H182.44V26.759999999999998H176.728V43.0Z M191.236 43.392Q189.22 43.392 187.582 42.482Q185.944 41.572 184.978 39.822Q184.012 38.072 184.012 35.552V30.848Q184.012 27.067999999999998 186.14 25.037999999999997Q188.268 23.008 191.908 23.008Q195.51999999999998 23.008 197.49399999999997 24.926000000000002Q199.468 26.844 199.468 30.119999999999997V30.232H195.828V30.008Q195.828 28.972 195.394 28.132Q194.96 27.292 194.09199999999998 26.802Q193.224 26.312 191.908 26.312Q189.948 26.312 188.828 27.516Q187.708 28.72 187.708 30.792V35.608Q187.708 37.652 188.828 38.897999999999996Q189.948 40.144 191.964 40.144Q193.98 40.144 194.904 39.08Q195.828 38.016 195.828 36.391999999999996V36.112H191.18V32.976H199.468V43.0H196.052V41.124H195.548Q195.352 41.6 194.918 42.132000000000005Q194.48399999999998 42.664 193.61599999999999 43.028000000000006Q192.748 43.392 191.236 43.392Z"/>
</svg>
